# xmcd CD database file
#
# Track frame offsets:
#	150
#	18781
#	36576
#	55182
#	72879
#	91831
#	109471
#	125023
#	141491
#	158016
#	171033
#	184327
#	200828
#	218643
#	233974
#	249075
#	267399
#	282102
#	294368
#	310971
#	324443
#	341776
#
# Disc length: 4738 seconds
#
# Revision: 0
# Processed by: cddbd v1.5.2PL0 Copyright (c) Steve Scherf et al.
# Submitted via: CDex 1.51
#
DISCID=50128016
DTITLE=Conjunto  Universal - The Best Of
DYEAR=2009
DGENRE=Salsa
TTITLE0=Oyelo Bien
TTITLE1=Con La Mayor Elegancia
TTITLE2=Manana Me Caso Contigo
TTITLE3=Don Jose
TTITLE4=Guaguanco Sabroso
TTITLE5=Son Montunero
TTITLE6=El Pollo
TTITLE7=Aquilino
TTITLE8=Ahora Si E Cuando E
TTITLE9=Baila Como Yo
TTITLE10=En Casa De Pedro El Cojo
TTITLE11=Coco  Rocco
TTITLE12=Todos Piden Guaguanco
TTITLE13=Sabroseao
TTITLE14=Yo Vine Pa Ver Yo Vine Pa Bailar
TTITLE15=Filomena
TTITLE16=Como Mi Son No Hay Dos
TTITLE17=Hay Vistas Que Tumban Cocos
TTITLE18=Tu Nunca Pienses
TTITLE19=Ay Macalunga
TTITLE20=Voy A Cantar
TTITLE21=La Reina Isabel
EXTD=YEAR: 2009
EXTT0=
EXTT1=
EXTT2=
EXTT3=
EXTT4=
EXTT5=
EXTT6=
EXTT7=
EXTT8=
EXTT9=
EXTT10=
EXTT11=
EXTT12=
EXTT13=
EXTT14=
EXTT15=
EXTT16=
EXTT17=
EXTT18=
EXTT19=
EXTT20=
EXTT21=
PLAYORDER=
